<svg xmlns="http://www.w3.org/2000/svg" xmlns:xlink="http://www.w3.org/1999/xlink" width="250" zoomAndPan="magnify" viewBox="0 0 187.5 187.499992" height="250" preserveAspectRatio="xMidYMid meet" version="1.0"><defs><clipPath id="eee5347a4d"><path d="M 7.386719 7.386719 L 179.886719 7.386719 L 179.886719 179.886719 L 7.386719 179.886719 Z M 7.386719 7.386719 " clip-rule="nonzero"/></clipPath></defs><g clip-path="url(#eee5347a4d)"><path fill="#000000" d="M 93.636719 7.386719 C 46.070312 7.386719 7.386719 46.070312 7.386719 93.636719 C 7.386719 141.203125 46.070312 179.886719 93.636719 179.886719 C 141.203125 179.886719 179.886719 141.203125 179.886719 93.636719 C 179.886719 46.070312 141.203125 7.386719 93.636719 7.386719 Z M 93.636719 173.835938 C 49.351562 173.835938 13.433594 137.917969 13.433594 93.636719 C 13.433594 49.351562 49.351562 13.433594 93.636719 13.433594 C 137.917969 13.433594 173.835938 49.351562 173.835938 93.636719 C 173.835938 137.917969 137.917969 173.835938 93.636719 173.835938 Z M 93.636719 173.835938 " fill-opacity="1" fill-rule="nonzero"/></g><path fill="#000000" d="M 137.058594 65.851562 L 107.859375 93.636719 L 137.058594 121.417969 C 137.84375 120.351562 138.34375 119.164062 138.5625 117.859375 L 138.5625 69.410156 C 138.34375 68.105469 137.84375 66.917969 137.058594 65.851562 Z M 137.058594 65.851562 " fill-opacity="1" fill-rule="nonzero"/><path fill="#000000" d="M 93.636719 107.171875 L 81.621094 95.738281 L 52.441406 123.5 C 53.8125 124.40625 55.324219 124.855469 56.96875 124.851562 L 130.300781 124.851562 C 131.945312 124.855469 133.457031 124.40625 134.828125 123.5 L 105.648438 95.738281 Z M 93.636719 107.171875 " fill-opacity="1" fill-rule="nonzero"/><path fill="#000000" d="M 50.210938 65.851562 C 49.425781 66.917969 48.925781 68.105469 48.707031 69.410156 L 48.707031 117.859375 C 48.925781 119.164062 49.425781 120.351562 50.210938 121.417969 L 79.410156 93.636719 Z M 50.210938 65.851562 " fill-opacity="1" fill-rule="nonzero"/><path fill="#000000" d="M 81.621094 91.53125 L 93.636719 102.988281 L 134.828125 63.769531 C 133.457031 62.863281 131.945312 62.414062 130.300781 62.417969 L 56.96875 62.417969 C 55.324219 62.414062 53.8125 62.863281 52.441406 63.769531 Z M 81.621094 91.53125 " fill-opacity="1" fill-rule="nonzero"/></svg>