<svg xmlns="http://www.w3.org/2000/svg" xmlns:xlink="http://www.w3.org/1999/xlink" width="250" zoomAndPan="magnify" viewBox="0 0 187.5 187.499992" height="250" preserveAspectRatio="xMidYMid meet" version="1.0"><defs><clipPath id="9ddef1b9ee"><path d="M 7.386719 7.386719 L 179.886719 7.386719 L 179.886719 179.886719 L 7.386719 179.886719 Z M 7.386719 7.386719 " clip-rule="nonzero"/></clipPath></defs><path fill="#000000" d="M 118.75 43.074219 L 68.519531 43.074219 C 67.6875 43.074219 66.855469 43.117188 66.027344 43.199219 C 65.199219 43.28125 64.375 43.40625 63.558594 43.570312 C 62.742188 43.730469 61.933594 43.933594 61.136719 44.175781 C 60.339844 44.417969 59.558594 44.699219 58.789062 45.019531 C 58.019531 45.339844 57.265625 45.695312 56.53125 46.089844 C 55.796875 46.480469 55.082031 46.910156 54.390625 47.371094 C 53.699219 47.835938 53.03125 48.332031 52.386719 48.859375 C 51.742188 49.386719 51.125 49.949219 50.535156 50.535156 C 49.949219 51.125 49.386719 51.742188 48.859375 52.386719 C 48.332031 53.03125 47.835938 53.699219 47.371094 54.390625 C 46.910156 55.082031 46.480469 55.796875 46.089844 56.53125 C 45.695312 57.265625 45.339844 58.019531 45.019531 58.789062 C 44.699219 59.558594 44.417969 60.339844 44.175781 61.136719 C 43.933594 61.933594 43.730469 62.742188 43.570312 63.558594 C 43.40625 64.375 43.28125 65.199219 43.199219 66.027344 C 43.117188 66.855469 43.074219 67.6875 43.074219 68.519531 L 43.074219 118.75 C 43.074219 119.582031 43.117188 120.414062 43.199219 121.242188 C 43.28125 122.070312 43.40625 122.894531 43.570312 123.710938 C 43.730469 124.527344 43.933594 125.335938 44.175781 126.132812 C 44.417969 126.929688 44.699219 127.710938 45.019531 128.480469 C 45.339844 129.25 45.695312 130.003906 46.089844 130.738281 C 46.480469 131.472656 46.910156 132.1875 47.371094 132.878906 C 47.835938 133.570312 48.332031 134.238281 48.859375 134.882812 C 49.386719 135.527344 49.949219 136.144531 50.535156 136.734375 C 51.125 137.324219 51.742188 137.882812 52.386719 138.410156 C 53.03125 138.9375 53.699219 139.433594 54.390625 139.898438 C 55.082031 140.359375 55.796875 140.789062 56.53125 141.183594 C 57.265625 141.574219 58.019531 141.929688 58.789062 142.25 C 59.558594 142.570312 60.339844 142.851562 61.136719 143.09375 C 61.933594 143.335938 62.742188 143.539062 63.558594 143.703125 C 64.375 143.863281 65.199219 143.988281 66.027344 144.070312 C 66.855469 144.152344 67.6875 144.195312 68.519531 144.195312 L 118.75 144.195312 C 119.582031 144.195312 120.414062 144.152344 121.242188 144.070312 C 122.070312 143.988281 122.894531 143.863281 123.710938 143.703125 C 124.527344 143.539062 125.335938 143.335938 126.132812 143.09375 C 126.929688 142.851562 127.710938 142.570312 128.480469 142.25 C 129.25 141.929688 130.003906 141.574219 130.738281 141.183594 C 131.472656 140.789062 132.1875 140.359375 132.878906 139.898438 C 133.570312 139.433594 134.238281 138.9375 134.882812 138.410156 C 135.527344 137.882812 136.144531 137.324219 136.734375 136.734375 C 137.324219 136.144531 137.882812 135.527344 138.410156 134.882812 C 138.9375 134.238281 139.433594 133.570312 139.898438 132.878906 C 140.359375 132.1875 140.789062 131.472656 141.183594 130.738281 C 141.574219 130.003906 141.929688 129.25 142.25 128.480469 C 142.570312 127.710938 142.851562 126.929688 143.09375 126.132812 C 143.335938 125.335938 143.539062 124.527344 143.703125 123.710938 C 143.863281 122.894531 143.988281 122.070312 144.070312 121.242188 C 144.152344 120.414062 144.195312 119.582031 144.195312 118.75 L 144.195312 68.519531 C 144.195312 67.6875 144.152344 66.855469 144.070312 66.027344 C 143.988281 65.199219 143.863281 64.375 143.703125 63.558594 C 143.539062 62.742188 143.335938 61.933594 143.09375 61.136719 C 142.851562 60.339844 142.570312 59.558594 142.25 58.789062 C 141.929688 58.019531 141.574219 57.265625 141.183594 56.53125 C 140.789062 55.796875 140.359375 55.082031 139.898438 54.390625 C 139.433594 53.699219 138.9375 53.03125 138.410156 52.386719 C 137.882812 51.742188 137.324219 51.125 136.734375 50.535156 C 136.144531 49.949219 135.527344 49.386719 134.882812 48.859375 C 134.238281 48.332031 133.570312 47.835938 132.878906 47.371094 C 132.1875 46.910156 131.472656 46.480469 130.738281 46.089844 C 130.003906 45.695312 129.25 45.339844 128.480469 45.019531 C 127.710938 44.699219 126.929688 44.417969 126.132812 44.175781 C 125.335938 43.933594 124.527344 43.730469 123.710938 43.570312 C 122.894531 43.40625 122.070312 43.28125 121.242188 43.199219 C 120.414062 43.117188 119.582031 43.074219 118.75 43.074219 Z M 138.246094 118.75 C 138.246094 119.386719 138.214844 120.023438 138.152344 120.660156 C 138.089844 121.292969 137.996094 121.925781 137.871094 122.550781 C 137.746094 123.175781 137.589844 123.796875 137.402344 124.40625 C 137.21875 125.019531 137.003906 125.617188 136.757812 126.207031 C 136.511719 126.796875 136.242188 127.375 135.941406 127.9375 C 135.636719 128.5 135.308594 129.046875 134.957031 129.578125 C 134.601562 130.109375 134.222656 130.621094 133.816406 131.113281 C 133.410156 131.605469 132.980469 132.078125 132.53125 132.53125 C 132.078125 132.980469 131.605469 133.410156 131.113281 133.816406 C 130.621094 134.222656 130.109375 134.601562 129.578125 134.957031 C 129.046875 135.308594 128.5 135.636719 127.9375 135.941406 C 127.375 136.242188 126.796875 136.511719 126.207031 136.757812 C 125.617188 137.003906 125.019531 137.21875 124.40625 137.402344 C 123.796875 137.589844 123.175781 137.746094 122.550781 137.871094 C 121.925781 137.996094 121.292969 138.089844 120.660156 138.152344 C 120.023438 138.214844 119.386719 138.246094 118.75 138.246094 L 68.519531 138.246094 C 67.882812 138.246094 67.246094 138.214844 66.609375 138.152344 C 65.976562 138.089844 65.34375 137.996094 64.71875 137.871094 C 64.09375 137.746094 63.472656 137.589844 62.863281 137.402344 C 62.253906 137.21875 61.652344 137.003906 61.0625 136.757812 C 60.472656 136.511719 59.894531 136.242188 59.332031 135.941406 C 58.769531 135.636719 58.222656 135.308594 57.691406 134.957031 C 57.164062 134.601562 56.648438 134.222656 56.15625 133.816406 C 55.664062 133.410156 55.191406 132.980469 54.738281 132.53125 C 54.289062 132.078125 53.859375 131.605469 53.453125 131.113281 C 53.050781 130.621094 52.667969 130.109375 52.316406 129.578125 C 51.960938 129.046875 51.632812 128.5 51.332031 127.9375 C 51.03125 127.375 50.757812 126.796875 50.511719 126.207031 C 50.265625 125.617188 50.050781 125.019531 49.867188 124.40625 C 49.679688 123.796875 49.527344 123.175781 49.402344 122.550781 C 49.277344 121.925781 49.179688 121.292969 49.117188 120.660156 C 49.054688 120.023438 49.023438 119.386719 49.023438 118.75 L 49.023438 68.519531 C 49.023438 67.882812 49.054688 67.246094 49.117188 66.609375 C 49.179688 65.976562 49.277344 65.34375 49.402344 64.71875 C 49.527344 64.09375 49.679688 63.472656 49.867188 62.863281 C 50.050781 62.253906 50.265625 61.652344 50.511719 61.0625 C 50.757812 60.472656 51.03125 59.894531 51.332031 59.332031 C 51.632812 58.769531 51.960938 58.222656 52.316406 57.691406 C 52.667969 57.160156 53.050781 56.648438 53.453125 56.15625 C 53.859375 55.664062 54.289062 55.191406 54.738281 54.738281 C 55.191406 54.289062 55.664062 53.859375 56.15625 53.453125 C 56.648438 53.050781 57.160156 52.667969 57.691406 52.316406 C 58.222656 51.960938 58.769531 51.632812 59.332031 51.332031 C 59.894531 51.03125 60.472656 50.757812 61.0625 50.511719 C 61.652344 50.265625 62.253906 50.050781 62.863281 49.867188 C 63.472656 49.679688 64.09375 49.527344 64.71875 49.402344 C 65.34375 49.277344 65.976562 49.179688 66.609375 49.117188 C 67.246094 49.054688 67.882812 49.023438 68.519531 49.023438 L 118.75 49.023438 C 119.386719 49.023438 120.023438 49.054688 120.660156 49.117188 C 121.292969 49.179688 121.925781 49.277344 122.550781 49.402344 C 123.175781 49.527344 123.796875 49.679688 124.40625 49.867188 C 125.019531 50.050781 125.617188 50.265625 126.207031 50.511719 C 126.796875 50.757812 127.375 51.03125 127.9375 51.332031 C 128.5 51.632812 129.046875 51.960938 129.578125 52.316406 C 130.109375 52.667969 130.621094 53.050781 131.113281 53.453125 C 131.605469 53.859375 132.078125 54.289062 132.53125 54.738281 C 132.980469 55.191406 133.410156 55.664062 133.816406 56.15625 C 134.222656 56.648438 134.601562 57.160156 134.957031 57.691406 C 135.308594 58.222656 135.636719 58.769531 135.941406 59.332031 C 136.242188 59.894531 136.511719 60.472656 136.757812 61.0625 C 137.003906 61.652344 137.21875 62.253906 137.402344 62.863281 C 137.589844 63.472656 137.746094 64.09375 137.871094 64.71875 C 137.996094 65.34375 138.089844 65.976562 138.152344 66.609375 C 138.214844 67.246094 138.246094 67.882812 138.246094 68.519531 Z M 138.246094 118.75 " fill-opacity="1" fill-rule="nonzero"/><path fill="#000000" d="M 93.636719 69.144531 C 92.832031 69.144531 92.03125 69.183594 91.234375 69.265625 C 90.4375 69.34375 89.644531 69.460938 88.859375 69.617188 C 88.070312 69.773438 87.292969 69.96875 86.527344 70.199219 C 85.757812 70.433594 85.003906 70.703125 84.261719 71.011719 C 83.523438 71.316406 82.796875 71.660156 82.089844 72.039062 C 81.382812 72.414062 80.695312 72.828125 80.03125 73.273438 C 79.363281 73.71875 78.71875 74.195312 78.097656 74.703125 C 77.480469 75.214844 76.886719 75.75 76.320312 76.320312 C 75.75 76.886719 75.214844 77.480469 74.703125 78.097656 C 74.195312 78.71875 73.71875 79.363281 73.273438 80.03125 C 72.828125 80.695312 72.414062 81.382812 72.039062 82.089844 C 71.660156 82.796875 71.316406 83.523438 71.011719 84.261719 C 70.703125 85.003906 70.433594 85.757812 70.199219 86.527344 C 69.96875 87.292969 69.773438 88.070312 69.617188 88.859375 C 69.460938 89.644531 69.34375 90.4375 69.265625 91.234375 C 69.183594 92.03125 69.144531 92.832031 69.144531 93.636719 C 69.144531 94.4375 69.183594 95.238281 69.265625 96.035156 C 69.34375 96.832031 69.460938 97.625 69.617188 98.414062 C 69.773438 99.199219 69.96875 99.976562 70.199219 100.742188 C 70.433594 101.511719 70.703125 102.265625 71.011719 103.007812 C 71.316406 103.746094 71.660156 104.472656 72.039062 105.179688 C 72.414062 105.886719 72.828125 106.574219 73.273438 107.242188 C 73.71875 107.90625 74.195312 108.550781 74.703125 109.171875 C 75.214844 109.789062 75.75 110.382812 76.320312 110.953125 C 76.886719 111.519531 77.480469 112.054688 78.097656 112.566406 C 78.71875 113.074219 79.363281 113.550781 80.03125 113.996094 C 80.695312 114.441406 81.382812 114.855469 82.089844 115.234375 C 82.796875 115.609375 83.523438 115.953125 84.261719 116.261719 C 85.003906 116.566406 85.757812 116.835938 86.527344 117.070312 C 87.292969 117.300781 88.070312 117.496094 88.859375 117.652344 C 89.644531 117.808594 90.4375 117.925781 91.234375 118.007812 C 92.03125 118.085938 92.832031 118.125 93.636719 118.125 C 94.4375 118.125 95.238281 118.085938 96.035156 118.007812 C 96.832031 117.925781 97.625 117.808594 98.414062 117.652344 C 99.199219 117.496094 99.976562 117.300781 100.742188 117.070312 C 101.511719 116.835938 102.265625 116.566406 103.007812 116.261719 C 103.746094 115.953125 104.472656 115.609375 105.179688 115.230469 C 105.886719 114.855469 106.574219 114.441406 107.242188 113.996094 C 107.90625 113.550781 108.550781 113.074219 109.171875 112.566406 C 109.789062 112.054688 110.382812 111.519531 110.953125 110.953125 C 111.519531 110.382812 112.054688 109.789062 112.566406 109.171875 C 113.074219 108.550781 113.550781 107.90625 113.996094 107.242188 C 114.441406 106.574219 114.855469 105.886719 115.234375 105.179688 C 115.609375 104.472656 115.953125 103.746094 116.261719 103.007812 C 116.566406 102.265625 116.835938 101.511719 117.070312 100.742188 C 117.300781 99.976562 117.496094 99.199219 117.652344 98.414062 C 117.808594 97.625 117.925781 96.832031 118.007812 96.035156 C 118.085938 95.238281 118.125 94.4375 118.125 93.636719 C 118.125 92.832031 118.082031 92.035156 118.003906 91.234375 C 117.925781 90.4375 117.804688 89.644531 117.648438 88.859375 C 117.492188 88.074219 117.296875 87.296875 117.0625 86.53125 C 116.828125 85.761719 116.558594 85.007812 116.253906 84.269531 C 115.945312 83.527344 115.601562 82.804688 115.222656 82.097656 C 114.84375 81.390625 114.433594 80.703125 113.988281 80.035156 C 113.542969 79.371094 113.066406 78.726562 112.554688 78.105469 C 112.046875 77.488281 111.507812 76.894531 110.941406 76.328125 C 110.375 75.761719 109.78125 75.222656 109.164062 74.714844 C 108.542969 74.203125 107.898438 73.726562 107.234375 73.28125 C 106.566406 72.835938 105.878906 72.425781 105.171875 72.046875 C 104.464844 71.667969 103.742188 71.324219 103.003906 71.019531 C 102.261719 70.710938 101.507812 70.441406 100.742188 70.207031 C 99.972656 69.972656 99.195312 69.777344 98.410156 69.621094 C 97.625 69.464844 96.832031 69.347656 96.035156 69.265625 C 95.238281 69.1875 94.4375 69.148438 93.636719 69.144531 Z M 93.636719 112.175781 C 93.027344 112.175781 92.421875 112.144531 91.816406 112.085938 C 91.214844 112.027344 90.613281 111.9375 90.019531 111.820312 C 89.421875 111.699219 88.835938 111.554688 88.253906 111.378906 C 87.671875 111.199219 87.101562 110.996094 86.539062 110.765625 C 85.980469 110.53125 85.429688 110.273438 84.894531 109.988281 C 84.359375 109.699219 83.839844 109.386719 83.335938 109.050781 C 82.828125 108.714844 82.34375 108.351562 81.871094 107.96875 C 81.402344 107.582031 80.953125 107.175781 80.523438 106.746094 C 80.09375 106.316406 79.6875 105.867188 79.304688 105.398438 C 78.917969 104.929688 78.554688 104.441406 78.21875 103.9375 C 77.882812 103.429688 77.570312 102.910156 77.285156 102.375 C 76.996094 101.839844 76.738281 101.292969 76.503906 100.730469 C 76.273438 100.167969 76.070312 99.597656 75.894531 99.015625 C 75.714844 98.4375 75.570312 97.847656 75.449219 97.253906 C 75.332031 96.65625 75.242188 96.054688 75.183594 95.453125 C 75.125 94.847656 75.09375 94.242188 75.09375 93.636719 C 75.09375 93.027344 75.125 92.421875 75.183594 91.816406 C 75.242188 91.214844 75.332031 90.613281 75.449219 90.019531 C 75.570312 89.421875 75.714844 88.835938 75.894531 88.253906 C 76.070312 87.671875 76.273438 87.101562 76.503906 86.539062 C 76.738281 85.980469 76.996094 85.429688 77.285156 84.894531 C 77.570312 84.359375 77.882812 83.839844 78.21875 83.335938 C 78.554688 82.828125 78.917969 82.34375 79.304688 81.871094 C 79.6875 81.402344 80.09375 80.953125 80.523438 80.523438 C 80.953125 80.09375 81.402344 79.6875 81.871094 79.304688 C 82.34375 78.917969 82.828125 78.554688 83.335938 78.21875 C 83.839844 77.882812 84.359375 77.570312 84.894531 77.285156 C 85.429688 76.996094 85.980469 76.738281 86.539062 76.503906 C 87.101562 76.273438 87.671875 76.070312 88.253906 75.894531 C 88.835938 75.714844 89.421875 75.570312 90.019531 75.449219 C 90.613281 75.332031 91.214844 75.242188 91.816406 75.183594 C 92.421875 75.125 93.027344 75.09375 93.636719 75.09375 C 94.242188 75.09375 94.847656 75.125 95.453125 75.183594 C 96.058594 75.242188 96.65625 75.332031 97.253906 75.449219 C 97.847656 75.570312 98.4375 75.714844 99.015625 75.894531 C 99.597656 76.070312 100.167969 76.273438 100.730469 76.503906 C 101.292969 76.738281 101.839844 76.996094 102.375 77.285156 C 102.910156 77.570312 103.429688 77.882812 103.9375 78.21875 C 104.441406 78.554688 104.929688 78.917969 105.398438 79.304688 C 105.867188 79.6875 106.316406 80.09375 106.746094 80.523438 C 107.175781 80.953125 107.582031 81.402344 107.96875 81.871094 C 108.351562 82.34375 108.714844 82.828125 109.050781 83.335938 C 109.386719 83.839844 109.699219 84.359375 109.988281 84.894531 C 110.273438 85.429688 110.53125 85.980469 110.765625 86.539062 C 110.996094 87.101562 111.199219 87.671875 111.378906 88.253906 C 111.554688 88.835938 111.699219 89.421875 111.820312 90.019531 C 111.9375 90.613281 112.027344 91.214844 112.085938 91.816406 C 112.144531 92.421875 112.175781 93.027344 112.175781 93.636719 C 112.175781 94.242188 112.144531 94.847656 112.085938 95.453125 C 112.023438 96.054688 111.933594 96.65625 111.816406 97.25 C 111.699219 97.847656 111.550781 98.433594 111.375 99.015625 C 111.195312 99.597656 110.992188 100.167969 110.757812 100.726562 C 110.527344 101.289062 110.269531 101.835938 109.980469 102.371094 C 109.695312 102.90625 109.382812 103.425781 109.046875 103.929688 C 108.707031 104.4375 108.347656 104.921875 107.960938 105.390625 C 107.578125 105.863281 107.167969 106.3125 106.738281 106.738281 C 106.3125 107.167969 105.863281 107.578125 105.390625 107.960938 C 104.921875 108.347656 104.4375 108.707031 103.929688 109.046875 C 103.425781 109.382812 102.90625 109.695312 102.371094 109.980469 C 101.835938 110.269531 101.289062 110.527344 100.726562 110.757812 C 100.167969 110.992188 99.597656 111.195312 99.015625 111.375 C 98.433594 111.550781 97.847656 111.699219 97.25 111.816406 C 96.65625 111.933594 96.054688 112.023438 95.453125 112.085938 C 94.847656 112.144531 94.242188 112.175781 93.636719 112.175781 Z M 93.636719 112.175781 " fill-opacity="1" fill-rule="nonzero"/><path fill="#000000" d="M 121.691406 56.519531 C 121.113281 56.519531 120.535156 56.574219 119.964844 56.6875 C 119.394531 56.800781 118.84375 56.96875 118.304688 57.191406 C 117.769531 57.414062 117.257812 57.6875 116.777344 58.007812 C 116.292969 58.332031 115.84375 58.699219 115.433594 59.109375 C 115.023438 59.519531 114.65625 59.96875 114.332031 60.453125 C 114.011719 60.933594 113.738281 61.445312 113.515625 61.980469 C 113.292969 62.519531 113.125 63.070312 113.011719 63.640625 C 112.898438 64.210938 112.84375 64.789062 112.84375 65.367188 C 112.84375 65.949219 112.898438 66.527344 113.011719 67.09375 C 113.125 67.664062 113.292969 68.21875 113.515625 68.757812 C 113.738281 69.292969 114.011719 69.804688 114.332031 70.285156 C 114.65625 70.769531 115.023438 71.214844 115.433594 71.628906 C 115.84375 72.039062 116.292969 72.40625 116.777344 72.726562 C 117.257812 73.050781 117.769531 73.324219 118.304688 73.546875 C 118.84375 73.769531 119.394531 73.9375 119.964844 74.050781 C 120.535156 74.164062 121.113281 74.21875 121.691406 74.21875 C 122.273438 74.21875 122.851562 74.164062 123.417969 74.050781 C 123.988281 73.9375 124.542969 73.769531 125.082031 73.546875 C 125.617188 73.324219 126.128906 73.050781 126.609375 72.726562 C 127.09375 72.40625 127.539062 72.039062 127.953125 71.628906 C 128.363281 71.214844 128.730469 70.769531 129.050781 70.285156 C 129.375 69.804688 129.648438 69.292969 129.871094 68.757812 C 130.09375 68.21875 130.261719 67.664062 130.375 67.09375 C 130.488281 66.527344 130.542969 65.949219 130.542969 65.367188 C 130.542969 64.789062 130.484375 64.210938 130.371094 63.644531 C 130.257812 63.074219 130.089844 62.519531 129.867188 61.984375 C 129.644531 61.445312 129.371094 60.9375 129.046875 60.453125 C 128.726562 59.972656 128.359375 59.523438 127.949219 59.113281 C 127.539062 58.703125 127.089844 58.335938 126.609375 58.011719 C 126.125 57.691406 125.613281 57.417969 125.078125 57.195312 C 124.542969 56.972656 123.988281 56.804688 123.417969 56.691406 C 122.847656 56.574219 122.273438 56.519531 121.691406 56.519531 Z M 121.691406 68.273438 C 121.308594 68.273438 120.9375 68.199219 120.582031 68.050781 C 120.226562 67.902344 119.914062 67.695312 119.640625 67.421875 C 119.367188 67.148438 119.160156 66.835938 119.011719 66.480469 C 118.863281 66.125 118.789062 65.753906 118.789062 65.367188 C 118.789062 64.984375 118.863281 64.613281 119.011719 64.257812 C 119.160156 63.902344 119.367188 63.589844 119.640625 63.316406 C 119.914062 63.042969 120.226562 62.835938 120.582031 62.6875 C 120.9375 62.539062 121.308594 62.464844 121.691406 62.464844 C 122.078125 62.464844 122.449219 62.539062 122.804688 62.6875 C 123.160156 62.835938 123.472656 63.042969 123.746094 63.316406 C 124.019531 63.589844 124.226562 63.902344 124.375 64.257812 C 124.523438 64.613281 124.597656 64.984375 124.597656 65.367188 C 124.59375 65.753906 124.519531 66.125 124.375 66.480469 C 124.226562 66.835938 124.015625 67.148438 123.742188 67.417969 C 123.472656 67.691406 123.160156 67.902344 122.804688 68.050781 C 122.449219 68.195312 122.078125 68.269531 121.691406 68.273438 Z M 121.691406 68.273438 " fill-opacity="1" fill-rule="nonzero"/><g clip-path="url(#9ddef1b9ee)"><path fill="#000000" d="M 93.636719 7.386719 C 92.222656 7.386719 90.8125 7.417969 89.402344 7.488281 C 87.992188 7.558594 86.585938 7.660156 85.179688 7.800781 C 83.777344 7.9375 82.375 8.113281 80.980469 8.320312 C 79.582031 8.527344 78.191406 8.765625 76.808594 9.042969 C 75.425781 9.316406 74.046875 9.625 72.679688 9.96875 C 71.308594 10.3125 69.949219 10.6875 68.597656 11.097656 C 67.246094 11.507812 65.90625 11.953125 64.578125 12.425781 C 63.25 12.902344 61.933594 13.410156 60.628906 13.949219 C 59.324219 14.492188 58.035156 15.0625 56.757812 15.664062 C 55.480469 16.269531 54.222656 16.902344 52.976562 17.570312 C 51.730469 18.234375 50.503906 18.929688 49.292969 19.65625 C 48.082031 20.382812 46.890625 21.136719 45.71875 21.921875 C 44.542969 22.703125 43.390625 23.515625 42.257812 24.359375 C 41.121094 25.199219 40.007812 26.066406 38.917969 26.960938 C 37.828125 27.859375 36.757812 28.78125 35.714844 29.726562 C 34.667969 30.675781 33.644531 31.648438 32.648438 32.648438 C 31.648438 33.644531 30.675781 34.667969 29.726562 35.714844 C 28.78125 36.757812 27.859375 37.828125 26.960938 38.917969 C 26.066406 40.007812 25.199219 41.121094 24.359375 42.257812 C 23.515625 43.390625 22.703125 44.542969 21.921875 45.71875 C 21.136719 46.890625 20.382812 48.082031 19.65625 49.292969 C 18.929688 50.503906 18.234375 51.730469 17.570312 52.976562 C 16.902344 54.222656 16.269531 55.480469 15.664062 56.757812 C 15.0625 58.035156 14.492188 59.324219 13.949219 60.628906 C 13.410156 61.933594 12.902344 63.25 12.425781 64.578125 C 11.953125 65.90625 11.507812 67.246094 11.097656 68.597656 C 10.6875 69.949219 10.3125 71.308594 9.96875 72.679688 C 9.625 74.046875 9.316406 75.425781 9.042969 76.808594 C 8.765625 78.191406 8.527344 79.582031 8.320312 80.980469 C 8.113281 82.375 7.9375 83.777344 7.800781 85.179688 C 7.660156 86.585938 7.558594 87.992188 7.488281 89.402344 C 7.417969 90.8125 7.386719 92.222656 7.386719 93.636719 C 7.386719 95.046875 7.417969 96.457031 7.488281 97.867188 C 7.558594 99.277344 7.660156 100.683594 7.800781 102.089844 C 7.9375 103.492188 8.113281 104.894531 8.320312 106.289062 C 8.527344 107.6875 8.765625 109.078125 9.042969 110.460938 C 9.316406 111.847656 9.625 113.222656 9.96875 114.59375 C 10.3125 115.960938 10.6875 117.320312 11.097656 118.671875 C 11.507812 120.023438 11.953125 121.363281 12.425781 122.691406 C 12.902344 124.019531 13.410156 125.335938 13.949219 126.640625 C 14.492188 127.945312 15.0625 129.234375 15.664062 130.511719 C 16.269531 131.789062 16.902344 133.046875 17.570312 134.292969 C 18.234375 135.539062 18.929688 136.765625 19.65625 137.976562 C 20.382812 139.1875 21.136719 140.378906 21.921875 141.554688 C 22.703125 142.726562 23.515625 143.878906 24.359375 145.015625 C 25.199219 146.148438 26.066406 147.261719 26.960938 148.351562 C 27.859375 149.441406 28.78125 150.511719 29.726562 151.558594 C 30.675781 152.601562 31.648438 153.625 32.648438 154.621094 C 33.644531 155.621094 34.667969 156.59375 35.714844 157.542969 C 36.757812 158.488281 37.828125 159.410156 38.917969 160.308594 C 40.007812 161.203125 41.121094 162.070312 42.257812 162.910156 C 43.390625 163.753906 44.542969 164.566406 45.71875 165.347656 C 46.890625 166.132812 48.082031 166.886719 49.292969 167.613281 C 50.503906 168.339844 51.730469 169.035156 52.976562 169.699219 C 54.222656 170.367188 55.480469 171 56.757812 171.605469 C 58.035156 172.207031 59.324219 172.78125 60.628906 173.320312 C 61.933594 173.859375 63.25 174.367188 64.578125 174.84375 C 65.90625 175.320312 67.246094 175.761719 68.597656 176.171875 C 69.949219 176.582031 71.308594 176.957031 72.679688 177.300781 C 74.046875 177.644531 75.425781 177.953125 76.808594 178.226562 C 78.191406 178.503906 79.582031 178.746094 80.980469 178.953125 C 82.375 179.160156 83.777344 179.332031 85.179688 179.46875 C 86.585938 179.609375 87.992188 179.710938 89.402344 179.78125 C 90.8125 179.851562 92.222656 179.886719 93.636719 179.886719 C 95.046875 179.886719 96.457031 179.851562 97.867188 179.78125 C 99.277344 179.710938 100.683594 179.609375 102.089844 179.46875 C 103.492188 179.332031 104.894531 179.160156 106.289062 178.953125 C 107.6875 178.746094 109.078125 178.503906 110.460938 178.226562 C 111.847656 177.953125 113.222656 177.644531 114.59375 177.300781 C 115.960938 176.957031 117.320312 176.582031 118.671875 176.171875 C 120.023438 175.761719 121.363281 175.320312 122.691406 174.84375 C 124.019531 174.367188 125.335938 173.859375 126.640625 173.320312 C 127.945312 172.78125 129.234375 172.207031 130.511719 171.605469 C 131.789062 171 133.046875 170.367188 134.292969 169.699219 C 135.539062 169.035156 136.765625 168.339844 137.976562 167.613281 C 139.1875 166.886719 140.378906 166.132812 141.554688 165.347656 C 142.726562 164.566406 143.878906 163.753906 145.015625 162.910156 C 146.148438 162.070312 147.261719 161.203125 148.351562 160.308594 C 149.441406 159.410156 150.511719 158.488281 151.558594 157.542969 C 152.601562 156.59375 153.625 155.621094 154.621094 154.621094 C 155.621094 153.625 156.59375 152.601562 157.542969 151.558594 C 158.488281 150.511719 159.410156 149.441406 160.308594 148.351562 C 161.203125 147.261719 162.070312 146.148438 162.910156 145.015625 C 163.753906 143.878906 164.566406 142.726562 165.347656 141.554688 C 166.132812 140.378906 166.886719 139.1875 167.613281 137.976562 C 168.339844 136.765625 169.035156 135.539062 169.699219 134.292969 C 170.367188 133.046875 171 131.789062 171.605469 130.511719 C 172.207031 129.234375 172.78125 127.945312 173.320312 126.640625 C 173.859375 125.335938 174.367188 124.019531 174.84375 122.691406 C 175.320312 121.363281 175.761719 120.023438 176.171875 118.671875 C 176.582031 117.320312 176.957031 115.960938 177.300781 114.59375 C 177.644531 113.222656 177.953125 111.847656 178.226562 110.460938 C 178.503906 109.078125 178.746094 107.6875 178.953125 106.289062 C 179.160156 104.894531 179.332031 103.492188 179.46875 102.089844 C 179.609375 100.683594 179.710938 99.277344 179.78125 97.867188 C 179.851562 96.457031 179.886719 95.046875 179.886719 93.636719 C 179.882812 92.222656 179.847656 90.8125 179.777344 89.40625 C 179.707031 87.996094 179.601562 86.589844 179.460938 85.183594 C 179.320312 83.78125 179.148438 82.378906 178.9375 80.984375 C 178.730469 79.589844 178.488281 78.199219 178.210938 76.816406 C 177.933594 75.433594 177.625 74.054688 177.28125 72.6875 C 176.9375 71.320312 176.558594 69.960938 176.148438 68.609375 C 175.738281 67.257812 175.292969 65.921875 174.816406 64.589844 C 174.34375 63.261719 173.832031 61.949219 173.292969 60.644531 C 172.75 59.339844 172.179688 58.050781 171.574219 56.777344 C 170.972656 55.5 170.335938 54.242188 169.671875 52.996094 C 169.003906 51.753906 168.308594 50.527344 167.582031 49.316406 C 166.859375 48.105469 166.101562 46.914062 165.316406 45.742188 C 164.535156 44.566406 163.722656 43.414062 162.878906 42.28125 C 162.039062 41.148438 161.171875 40.035156 160.277344 38.945312 C 159.382812 37.855469 158.460938 36.785156 157.511719 35.742188 C 156.5625 34.695312 155.589844 33.675781 154.59375 32.675781 C 153.59375 31.679688 152.574219 30.707031 151.527344 29.757812 C 150.484375 28.8125 149.414062 27.890625 148.324219 26.992188 C 147.234375 26.097656 146.121094 25.230469 144.988281 24.390625 C 143.855469 23.546875 142.703125 22.734375 141.527344 21.953125 C 140.355469 21.167969 139.164062 20.414062 137.953125 19.6875 C 136.746094 18.960938 135.515625 18.265625 134.273438 17.597656 C 133.027344 16.933594 131.769531 16.296875 130.492188 15.695312 C 129.21875 15.089844 127.929688 14.519531 126.625 13.976562 C 125.324219 13.4375 124.007812 12.929688 122.679688 12.453125 C 121.351562 11.976562 120.011719 11.53125 118.660156 11.121094 C 117.3125 10.710938 115.953125 10.332031 114.582031 9.988281 C 113.214844 9.644531 111.839844 9.335938 110.453125 9.058594 C 109.070312 8.78125 107.679688 8.539062 106.285156 8.332031 C 104.890625 8.125 103.488281 7.949219 102.085938 7.808594 C 100.683594 7.667969 99.273438 7.566406 97.867188 7.492188 C 96.457031 7.421875 95.046875 7.386719 93.636719 7.386719 Z M 93.636719 173.9375 C 92.320312 173.9375 91.007812 173.90625 89.695312 173.839844 C 88.382812 173.777344 87.070312 173.679688 85.765625 173.550781 C 84.457031 173.421875 83.152344 173.261719 81.851562 173.066406 C 80.550781 172.875 79.257812 172.648438 77.96875 172.394531 C 76.679688 172.136719 75.398438 171.847656 74.125 171.53125 C 72.847656 171.210938 71.582031 170.859375 70.324219 170.480469 C 69.066406 170.097656 67.820312 169.683594 66.582031 169.242188 C 65.34375 168.800781 64.117188 168.328125 62.90625 167.824219 C 61.691406 167.320312 60.488281 166.789062 59.300781 166.226562 C 58.113281 165.664062 56.941406 165.074219 55.78125 164.453125 C 54.621094 163.835938 53.480469 163.1875 52.351562 162.511719 C 51.222656 161.835938 50.113281 161.132812 49.023438 160.402344 C 47.929688 159.671875 46.855469 158.917969 45.800781 158.132812 C 44.742188 157.351562 43.707031 156.542969 42.691406 155.710938 C 41.675781 154.875 40.679688 154.015625 39.707031 153.132812 C 38.734375 152.253906 37.78125 151.347656 36.851562 150.417969 C 35.925781 149.488281 35.019531 148.535156 34.136719 147.5625 C 33.253906 146.589844 32.394531 145.59375 31.5625 144.578125 C 30.726562 143.5625 29.917969 142.527344 29.136719 141.46875 C 28.351562 140.414062 27.597656 139.339844 26.867188 138.25 C 26.136719 137.15625 25.433594 136.046875 24.757812 134.917969 C 24.082031 133.792969 23.433594 132.648438 22.816406 131.488281 C 22.195312 130.328125 21.605469 129.15625 21.042969 127.96875 C 20.480469 126.78125 19.949219 125.578125 19.445312 124.363281 C 18.941406 123.152344 18.46875 121.925781 18.027344 120.6875 C 17.585938 119.449219 17.171875 118.203125 16.792969 116.945312 C 16.410156 115.6875 16.058594 114.421875 15.738281 113.148438 C 15.421875 111.871094 15.132812 110.589844 14.875 109.300781 C 14.621094 108.011719 14.394531 106.71875 14.203125 105.417969 C 14.007812 104.117188 13.847656 102.8125 13.71875 101.507812 C 13.589844 100.199219 13.496094 98.886719 13.429688 97.574219 C 13.367188 96.261719 13.332031 94.949219 13.332031 93.636719 C 13.332031 92.320312 13.367188 91.007812 13.429688 89.695312 C 13.496094 88.382812 13.589844 87.070312 13.71875 85.765625 C 13.847656 84.457031 14.007812 83.152344 14.203125 81.851562 C 14.394531 80.550781 14.621094 79.257812 14.875 77.96875 C 15.132812 76.679688 15.421875 75.398438 15.738281 74.125 C 16.058594 72.847656 16.410156 71.582031 16.792969 70.324219 C 17.171875 69.066406 17.585938 67.820312 18.027344 66.582031 C 18.46875 65.34375 18.941406 64.117188 19.445312 62.90625 C 19.949219 61.691406 20.480469 60.488281 21.042969 59.300781 C 21.605469 58.113281 22.195312 56.941406 22.816406 55.78125 C 23.433594 54.621094 24.082031 53.480469 24.757812 52.351562 C 25.433594 51.222656 26.136719 50.113281 26.867188 49.023438 C 27.597656 47.929688 28.351562 46.855469 29.136719 45.800781 C 29.917969 44.742188 30.726562 43.707031 31.5625 42.691406 C 32.394531 41.675781 33.253906 40.679688 34.136719 39.707031 C 35.019531 38.734375 35.925781 37.78125 36.851562 36.851562 C 37.78125 35.925781 38.734375 35.019531 39.707031 34.136719 C 40.679688 33.253906 41.675781 32.394531 42.691406 31.5625 C 43.707031 30.726562 44.742188 29.917969 45.800781 29.136719 C 46.855469 28.351562 47.929688 27.597656 49.023438 26.867188 C 50.113281 26.136719 51.222656 25.433594 52.351562 24.757812 C 53.480469 24.082031 54.621094 23.433594 55.78125 22.816406 C 56.941406 22.195312 58.113281 21.605469 59.300781 21.042969 C 60.488281 20.480469 61.691406 19.949219 62.90625 19.445312 C 64.117188 18.941406 65.34375 18.46875 66.582031 18.027344 C 67.820312 17.585938 69.066406 17.171875 70.324219 16.792969 C 71.582031 16.410156 72.847656 16.058594 74.125 15.738281 C 75.398438 15.421875 76.679688 15.132812 77.96875 14.875 C 79.257812 14.621094 80.550781 14.394531 81.851562 14.203125 C 83.152344 14.007812 84.457031 13.847656 85.765625 13.71875 C 87.070312 13.589844 88.382812 13.496094 89.695312 13.429688 C 91.007812 13.367188 92.320312 13.332031 93.636719 13.332031 C 94.949219 13.332031 96.261719 13.367188 97.574219 13.429688 C 98.886719 13.496094 100.199219 13.589844 101.507812 13.71875 C 102.8125 13.847656 104.117188 14.007812 105.417969 14.203125 C 106.71875 14.394531 108.011719 14.621094 109.300781 14.875 C 110.589844 15.132812 111.871094 15.421875 113.148438 15.738281 C 114.421875 16.058594 115.6875 16.410156 116.945312 16.792969 C 118.203125 17.171875 119.449219 17.585938 120.6875 18.027344 C 121.925781 18.46875 123.152344 18.941406 124.363281 19.445312 C 125.578125 19.949219 126.78125 20.480469 127.96875 21.042969 C 129.15625 21.605469 130.328125 22.195312 131.488281 22.816406 C 132.648438 23.433594 133.792969 24.082031 134.917969 24.757812 C 136.046875 25.433594 137.15625 26.136719 138.25 26.867188 C 139.339844 27.597656 140.414062 28.351562 141.46875 29.136719 C 142.527344 29.917969 143.5625 30.726562 144.578125 31.5625 C 145.59375 32.394531 146.589844 33.253906 147.5625 34.136719 C 148.535156 35.019531 149.488281 35.925781 150.417969 36.851562 C 151.347656 37.78125 152.253906 38.734375 153.132812 39.707031 C 154.015625 40.679688 154.875 41.675781 155.710938 42.691406 C 156.542969 43.707031 157.351562 44.742188 158.132812 45.800781 C 158.917969 46.855469 159.671875 47.929688 160.402344 49.023438 C 161.132812 50.113281 161.835938 51.222656 162.511719 52.351562 C 163.1875 53.480469 163.835938 54.621094 164.453125 55.78125 C 165.074219 56.941406 165.664062 58.113281 166.226562 59.300781 C 166.789062 60.488281 167.320312 61.691406 167.824219 62.90625 C 168.328125 64.117188 168.800781 65.34375 169.242188 66.582031 C 169.683594 67.820312 170.097656 69.066406 170.480469 70.324219 C 170.859375 71.582031 171.210938 72.847656 171.53125 74.125 C 171.847656 75.398438 172.136719 76.679688 172.394531 77.96875 C 172.648438 79.257812 172.875 80.550781 173.066406 81.851562 C 173.261719 83.152344 173.421875 84.457031 173.550781 85.765625 C 173.679688 87.070312 173.777344 88.382812 173.839844 89.695312 C 173.90625 91.007812 173.9375 92.320312 173.9375 93.636719 C 173.933594 94.949219 173.902344 96.261719 173.835938 97.574219 C 173.769531 98.886719 173.671875 100.195312 173.542969 101.503906 C 173.410156 102.808594 173.25 104.113281 173.054688 105.414062 C 172.863281 106.710938 172.636719 108.007812 172.378906 109.292969 C 172.121094 110.582031 171.832031 111.863281 171.511719 113.140625 C 171.191406 114.414062 170.839844 115.679688 170.457031 116.933594 C 170.078125 118.191406 169.664062 119.4375 169.21875 120.675781 C 168.777344 121.914062 168.304688 123.136719 167.800781 124.351562 C 167.296875 125.566406 166.765625 126.765625 166.203125 127.953125 C 165.640625 129.140625 165.046875 130.3125 164.429688 131.472656 C 163.808594 132.628906 163.160156 133.773438 162.484375 134.898438 C 161.808594 136.027344 161.105469 137.136719 160.375 138.226562 C 159.644531 139.320312 158.890625 140.394531 158.105469 141.449219 C 157.324219 142.503906 156.515625 143.539062 155.683594 144.554688 C 154.847656 145.570312 153.988281 146.5625 153.109375 147.539062 C 152.226562 148.511719 151.320312 149.460938 150.390625 150.390625 C 149.460938 151.320312 148.511719 152.226562 147.539062 153.109375 C 146.5625 153.988281 145.570312 154.847656 144.554688 155.683594 C 143.539062 156.515625 142.503906 157.324219 141.449219 158.105469 C 140.394531 158.890625 139.320312 159.644531 138.226562 160.375 C 137.136719 161.105469 136.027344 161.808594 134.898438 162.484375 C 133.773438 163.160156 132.628906 163.808594 131.472656 164.429688 C 130.3125 165.046875 129.140625 165.640625 127.953125 166.203125 C 126.765625 166.765625 125.566406 167.296875 124.351562 167.800781 C 123.136719 168.304688 121.914062 168.777344 120.675781 169.21875 C 119.4375 169.664062 118.191406 170.078125 116.933594 170.457031 C 115.679688 170.839844 114.414062 171.191406 113.140625 171.511719 C 111.863281 171.832031 110.582031 172.121094 109.292969 172.378906 C 108.007812 172.636719 106.710938 172.863281 105.414062 173.054688 C 104.113281 173.25 102.808594 173.410156 101.503906 173.542969 C 100.195312 173.671875 98.886719 173.769531 97.574219 173.835938 C 96.261719 173.902344 94.949219 173.933594 93.636719 173.9375 Z M 93.636719 173.9375 " fill-opacity="1" fill-rule="nonzero"/></g></svg>