<svg xmlns="http://www.w3.org/2000/svg" xmlns:xlink="http://www.w3.org/1999/xlink" width="250" zoomAndPan="magnify" viewBox="0 0 187.5 187.499992" height="250" preserveAspectRatio="xMidYMid meet" version="1.0"><defs><clipPath id="f207ae9da9"><path d="M 7.386719 7.386719 L 179.886719 7.386719 L 179.886719 179.886719 L 7.386719 179.886719 Z M 7.386719 7.386719 " clip-rule="nonzero"/></clipPath></defs><g clip-path="url(#f207ae9da9)"><path fill="#000000" d="M 58.105469 7.386719 C 30.265625 7.386719 7.386719 30.234375 7.386719 58.105469 L 7.386719 129.164062 C 7.386719 157.003906 30.234375 179.886719 58.105469 179.886719 L 129.164062 179.886719 C 157.003906 179.886719 179.886719 157.035156 179.886719 129.164062 L 179.886719 58.105469 C 179.886719 30.265625 157.035156 7.386719 129.164062 7.386719 Z M 58.105469 23.066406 L 129.164062 23.066406 C 148.550781 23.066406 164.203125 38.71875 164.203125 58.105469 L 164.203125 129.164062 C 164.203125 148.550781 148.550781 164.203125 129.164062 164.203125 L 58.105469 164.203125 C 38.71875 164.203125 23.066406 148.550781 23.066406 129.164062 L 23.066406 58.105469 C 23.066406 38.71875 38.71875 23.066406 58.105469 23.066406 Z M 139.945312 40.21875 C 135.996094 40.21875 132.839844 43.375 132.839844 47.324219 C 132.839844 51.277344 135.996094 54.429688 139.945312 54.429688 C 143.894531 54.429688 147.050781 51.277344 147.050781 47.324219 C 147.050781 43.375 143.894531 40.21875 139.945312 40.21875 Z M 93.636719 46.589844 C 67.753906 46.589844 46.589844 67.753906 46.589844 93.636719 C 46.589844 119.515625 67.753906 140.679688 93.636719 140.679688 C 119.515625 140.679688 140.679688 119.515625 140.679688 93.636719 C 140.679688 67.753906 119.515625 46.589844 93.636719 46.589844 Z M 93.636719 62.269531 C 111.0625 62.269531 125 76.207031 125 93.636719 C 125 111.0625 111.0625 125 93.636719 125 C 76.207031 125 62.269531 111.0625 62.269531 93.636719 C 62.269531 76.207031 76.207031 62.269531 93.636719 62.269531 Z M 93.636719 62.269531 " fill-opacity="1" fill-rule="nonzero"/></g></svg>