<svg xmlns="http://www.w3.org/2000/svg" xmlns:xlink="http://www.w3.org/1999/xlink" width="250" zoomAndPan="magnify" viewBox="0 0 187.5 187.499992" height="250" preserveAspectRatio="xMidYMid meet" version="1.0"><defs><clipPath id="6eebc29df4"><path d="M 7.386719 7.386719 L 179.886719 7.386719 L 179.886719 179.886719 L 7.386719 179.886719 Z M 7.386719 7.386719 " clip-rule="nonzero"/></clipPath></defs><g clip-path="url(#6eebc29df4)"><path fill="#000000" d="M 93.636719 7.386719 C 46.070312 7.386719 7.386719 46.070312 7.386719 93.636719 C 7.386719 141.203125 46.070312 179.886719 93.636719 179.886719 C 141.203125 179.886719 179.886719 141.203125 179.886719 93.636719 C 179.886719 46.070312 141.203125 7.386719 93.636719 7.386719 Z M 93.636719 173.835938 C 49.351562 173.835938 13.433594 137.917969 13.433594 93.636719 C 13.433594 49.351562 49.351562 13.433594 93.636719 13.433594 C 137.917969 13.433594 173.835938 49.351562 173.835938 93.636719 C 173.835938 137.917969 137.917969 173.835938 93.636719 173.835938 Z M 93.636719 173.835938 " fill-opacity="1" fill-rule="nonzero"/></g><path fill="#000000" d="M 130.195312 124.746094 C 135.558594 118.308594 131.609375 114.554688 128.050781 111.851562 C 124.488281 109.148438 116.097656 105.691406 113.523438 108.78125 C 110.949219 111.871094 106.828125 115.734375 103.65625 114.898438 C 98.289062 113.480469 91.445312 106.25 86.234375 101.035156 C 81.019531 95.824219 73.789062 88.980469 72.371094 83.617188 C 71.535156 80.441406 75.121094 76.558594 78.488281 73.746094 C 81.855469 70.933594 78.316406 63.082031 75.417969 59.222656 C 72.523438 55.359375 68.960938 51.710938 62.523438 57.074219 C 56.089844 62.4375 47.957031 76.707031 62.953125 98.460938 C 66.792969 104.039062 70.097656 107.257812 75.054688 112.214844 C 80.011719 117.171875 83.230469 120.476562 88.808594 124.316406 C 110.5625 139.3125 124.832031 131.183594 130.195312 124.746094 Z M 130.195312 124.746094 " fill-opacity="1" fill-rule="nonzero"/><path fill="#000000" d="M 112.171875 97.003906 C 111.796875 97.003906 111.429688 96.9375 111.078125 96.800781 C 110.726562 96.667969 110.414062 96.472656 110.132812 96.214844 C 109.855469 95.960938 109.632812 95.664062 109.46875 95.328125 C 109.300781 94.988281 109.199219 94.632812 109.167969 94.257812 C 109.082031 93.320312 108.917969 92.398438 108.671875 91.488281 C 108.429688 90.582031 108.105469 89.699219 107.707031 88.847656 C 107.308594 87.996094 106.839844 87.183594 106.296875 86.414062 C 105.757812 85.644531 105.15625 84.925781 104.488281 84.261719 C 103.824219 83.59375 103.105469 82.992188 102.335938 82.453125 C 101.566406 81.910156 100.753906 81.441406 99.902344 81.042969 C 99.050781 80.644531 98.167969 80.324219 97.261719 80.078125 C 96.351562 79.832031 95.429688 79.667969 94.492188 79.582031 C 94.09375 79.546875 93.714844 79.4375 93.359375 79.25 C 93.003906 79.0625 92.699219 78.816406 92.441406 78.507812 C 92.183594 78.203125 91.992188 77.855469 91.875 77.472656 C 91.753906 77.089844 91.710938 76.699219 91.746094 76.300781 C 91.78125 75.898438 91.894531 75.523438 92.078125 75.167969 C 92.265625 74.808594 92.511719 74.503906 92.820312 74.246094 C 93.128906 73.988281 93.472656 73.800781 93.855469 73.679688 C 94.238281 73.558594 94.628906 73.515625 95.03125 73.554688 C 96.316406 73.671875 97.582031 73.898438 98.828125 74.234375 C 100.078125 74.574219 101.285156 75.015625 102.457031 75.566406 C 103.625 76.113281 104.738281 76.757812 105.796875 77.5 C 106.855469 78.242188 107.839844 79.066406 108.753906 79.980469 C 109.667969 80.894531 110.496094 81.878906 111.238281 82.9375 C 111.984375 83.992188 112.628906 85.105469 113.175781 86.277344 C 113.726562 87.445312 114.171875 88.652344 114.511719 89.898438 C 114.847656 91.144531 115.078125 92.414062 115.199219 93.699219 C 115.234375 94.101562 115.191406 94.492188 115.070312 94.878906 C 114.953125 95.261719 114.761719 95.609375 114.507812 95.917969 C 114.25 96.226562 113.941406 96.476562 113.585938 96.664062 C 113.230469 96.851562 112.851562 96.964844 112.453125 97.003906 Z M 112.171875 97.003906 " fill-opacity="1" fill-rule="nonzero"/><path fill="#000000" d="M 126.246094 97.175781 C 125.855469 97.175781 125.480469 97.101562 125.117188 96.957031 C 124.757812 96.8125 124.433594 96.605469 124.152344 96.335938 C 123.871094 96.066406 123.648438 95.753906 123.488281 95.398438 C 123.328125 95.042969 123.238281 94.667969 123.222656 94.277344 C 123.175781 93.351562 123.089844 92.425781 122.960938 91.503906 C 122.832031 90.585938 122.660156 89.671875 122.445312 88.765625 C 122.230469 87.863281 121.976562 86.96875 121.679688 86.089844 C 121.382812 85.207031 121.046875 84.339844 120.671875 83.492188 C 120.292969 82.640625 119.878906 81.808594 119.425781 80.996094 C 118.972656 80.1875 118.484375 79.398438 117.957031 78.628906 C 117.433594 77.863281 116.875 77.121094 116.277344 76.40625 C 115.683594 75.691406 115.058594 75.003906 114.402344 74.347656 C 113.746094 73.691406 113.058594 73.066406 112.34375 72.472656 C 111.628906 71.878906 110.886719 71.316406 110.121094 70.792969 C 109.355469 70.265625 108.5625 69.777344 107.753906 69.324219 C 106.941406 68.871094 106.109375 68.457031 105.257812 68.078125 C 104.410156 67.703125 103.542969 67.367188 102.664062 67.070312 C 101.78125 66.773438 100.886719 66.519531 99.984375 66.304688 C 99.078125 66.089844 98.167969 65.917969 97.246094 65.789062 C 96.324219 65.660156 95.402344 65.574219 94.472656 65.527344 C 94.070312 65.511719 93.6875 65.414062 93.324219 65.246094 C 92.960938 65.074219 92.644531 64.839844 92.375 64.542969 C 92.101562 64.246094 91.898438 63.910156 91.761719 63.53125 C 91.625 63.15625 91.566406 62.765625 91.585938 62.363281 C 91.605469 61.960938 91.699219 61.582031 91.871094 61.21875 C 92.039062 60.851562 92.273438 60.535156 92.570312 60.265625 C 92.867188 59.996094 93.203125 59.792969 93.582031 59.65625 C 93.960938 59.519531 94.347656 59.460938 94.75 59.476562 C 95.867188 59.53125 96.976562 59.636719 98.082031 59.792969 C 99.1875 59.949219 100.28125 60.15625 101.367188 60.414062 C 102.453125 60.671875 103.523438 60.980469 104.582031 61.335938 C 105.640625 61.691406 106.679688 62.09375 107.699219 62.546875 C 108.722656 63 109.71875 63.496094 110.691406 64.042969 C 111.667969 64.585938 112.617188 65.171875 113.535156 65.804688 C 114.457031 66.433594 115.347656 67.109375 116.203125 67.820312 C 117.0625 68.535156 117.886719 69.285156 118.675781 70.074219 C 119.464844 70.863281 120.214844 71.6875 120.929688 72.546875 C 121.644531 73.40625 122.316406 74.292969 122.945312 75.214844 C 123.578125 76.136719 124.164062 77.082031 124.710938 78.058594 C 125.253906 79.03125 125.75 80.03125 126.203125 81.050781 C 126.65625 82.070312 127.058594 83.109375 127.414062 84.167969 C 127.773438 85.226562 128.078125 86.296875 128.335938 87.382812 C 128.59375 88.46875 128.800781 89.566406 128.957031 90.667969 C 129.113281 91.773438 129.21875 92.886719 129.273438 94 C 129.289062 94.402344 129.230469 94.789062 129.09375 95.167969 C 128.953125 95.546875 128.75 95.882812 128.476562 96.175781 C 128.207031 96.472656 127.886719 96.707031 127.523438 96.875 C 127.160156 97.042969 126.777344 97.136719 126.375 97.152344 Z M 126.246094 97.175781 " fill-opacity="1" fill-rule="nonzero"/></svg>