<svg xmlns="http://www.w3.org/2000/svg" xmlns:xlink="http://www.w3.org/1999/xlink" width="250" zoomAndPan="magnify" viewBox="0 0 187.5 187.499992" height="250" preserveAspectRatio="xMidYMid meet" version="1.0"><defs><clipPath id="81ebbfa098"><path d="M 7.605469 7.605469 L 180.105469 7.605469 L 180.105469 180.105469 L 7.605469 180.105469 Z M 7.605469 7.605469 " clip-rule="nonzero"/></clipPath></defs><g clip-path="url(#81ebbfa098)"><path fill="#000000" d="M 93.855469 7.605469 C 92.445312 7.605469 91.035156 7.640625 89.625 7.710938 C 88.214844 7.777344 86.808594 7.882812 85.402344 8.019531 C 83.996094 8.160156 82.597656 8.332031 81.199219 8.539062 C 79.804688 8.746094 78.414062 8.988281 77.03125 9.261719 C 75.644531 9.539062 74.269531 9.847656 72.898438 10.191406 C 71.53125 10.535156 70.167969 10.910156 68.820312 11.320312 C 67.46875 11.730469 66.128906 12.171875 64.800781 12.648438 C 63.46875 13.125 62.152344 13.632812 60.851562 14.171875 C 59.546875 14.710938 58.253906 15.285156 56.980469 15.886719 C 55.703125 16.492188 54.441406 17.125 53.199219 17.789062 C 51.953125 18.457031 50.726562 19.152344 49.515625 19.878906 C 48.304688 20.601562 47.113281 21.359375 45.9375 22.140625 C 44.765625 22.925781 43.609375 23.738281 42.476562 24.578125 C 41.34375 25.421875 40.230469 26.289062 39.140625 27.183594 C 38.046875 28.078125 36.980469 29 35.933594 29.949219 C 34.886719 30.898438 33.867188 31.871094 32.867188 32.867188 C 31.871094 33.867188 30.898438 34.886719 29.949219 35.933594 C 29 36.980469 28.078125 38.046875 27.183594 39.140625 C 26.289062 40.230469 25.421875 41.34375 24.578125 42.476562 C 23.738281 43.609375 22.925781 44.765625 22.140625 45.9375 C 21.359375 47.113281 20.601562 48.304688 19.878906 49.515625 C 19.152344 50.726562 18.457031 51.953125 17.789062 53.199219 C 17.125 54.441406 16.492188 55.703125 15.886719 56.980469 C 15.285156 58.253906 14.710938 59.546875 14.171875 60.851562 C 13.632812 62.152344 13.125 63.46875 12.648438 64.800781 C 12.171875 66.128906 11.730469 67.46875 11.320312 68.820312 C 10.910156 70.167969 10.535156 71.53125 10.191406 72.898438 C 9.847656 74.269531 9.539062 75.644531 9.261719 77.03125 C 8.988281 78.414062 8.746094 79.804688 8.539062 81.199219 C 8.332031 82.597656 8.160156 83.996094 8.019531 85.402344 C 7.882812 86.808594 7.777344 88.214844 7.710938 89.625 C 7.640625 91.035156 7.605469 92.445312 7.605469 93.855469 C 7.605469 95.269531 7.640625 96.679688 7.710938 98.089844 C 7.777344 99.496094 7.882812 100.90625 8.019531 102.308594 C 8.160156 103.714844 8.332031 105.117188 8.539062 106.511719 C 8.746094 107.90625 8.988281 109.296875 9.261719 110.683594 C 9.539062 112.066406 9.847656 113.445312 10.191406 114.8125 C 10.535156 116.183594 10.910156 117.542969 11.320312 118.894531 C 11.730469 120.242188 12.171875 121.582031 12.648438 122.914062 C 13.125 124.242188 13.632812 125.558594 14.171875 126.863281 C 14.710938 128.167969 15.285156 129.457031 15.886719 130.734375 C 16.492188 132.007812 17.125 133.269531 17.789062 134.515625 C 18.457031 135.757812 19.152344 136.988281 19.878906 138.199219 C 20.601562 139.40625 21.359375 140.601562 22.140625 141.773438 C 22.925781 142.949219 23.738281 144.101562 24.578125 145.234375 C 25.421875 146.367188 26.289062 147.480469 27.183594 148.574219 C 28.078125 149.664062 29 150.730469 29.949219 151.777344 C 30.898438 152.824219 31.871094 153.847656 32.867188 154.84375 C 33.867188 155.84375 34.886719 156.816406 35.933594 157.761719 C 36.980469 158.710938 38.046875 159.632812 39.140625 160.527344 C 40.230469 161.421875 41.34375 162.292969 42.476562 163.132812 C 43.609375 163.972656 44.765625 164.785156 45.9375 165.570312 C 47.113281 166.355469 48.304688 167.109375 49.515625 167.835938 C 50.726562 168.5625 51.953125 169.257812 53.199219 169.921875 C 54.441406 170.585938 55.703125 171.222656 56.980469 171.824219 C 58.253906 172.429688 59.546875 173 60.851562 173.539062 C 62.152344 174.082031 63.46875 174.589844 64.800781 175.0625 C 66.128906 175.539062 67.46875 175.984375 68.820312 176.390625 C 70.167969 176.800781 71.53125 177.179688 72.898438 177.519531 C 74.269531 177.863281 75.644531 178.171875 77.03125 178.449219 C 78.414062 178.722656 79.804688 178.964844 81.199219 179.171875 C 82.597656 179.378906 83.996094 179.550781 85.402344 179.691406 C 86.808594 179.828125 88.214844 179.933594 89.625 180.003906 C 91.035156 180.070312 92.445312 180.105469 93.855469 180.105469 C 95.269531 180.105469 96.679688 180.070312 98.089844 180.003906 C 99.496094 179.933594 100.90625 179.828125 102.308594 179.691406 C 103.714844 179.550781 105.117188 179.378906 106.511719 179.171875 C 107.90625 178.964844 109.296875 178.722656 110.683594 178.449219 C 112.066406 178.171875 113.445312 177.863281 114.8125 177.519531 C 116.183594 177.179688 117.542969 176.800781 118.894531 176.390625 C 120.242188 175.984375 121.582031 175.539062 122.914062 175.0625 C 124.242188 174.589844 125.558594 174.082031 126.863281 173.539062 C 128.167969 173 129.457031 172.429688 130.734375 171.824219 C 132.007812 171.222656 133.269531 170.585938 134.515625 169.921875 C 135.757812 169.257812 136.988281 168.5625 138.199219 167.835938 C 139.40625 167.109375 140.601562 166.355469 141.773438 165.570312 C 142.949219 164.785156 144.101562 163.972656 145.234375 163.132812 C 146.367188 162.292969 147.480469 161.421875 148.574219 160.527344 C 149.664062 159.632812 150.730469 158.710938 151.777344 157.761719 C 152.824219 156.816406 153.847656 155.84375 154.84375 154.84375 C 155.84375 153.847656 156.816406 152.824219 157.761719 151.777344 C 158.710938 150.730469 159.632812 149.664062 160.527344 148.574219 C 161.421875 147.480469 162.292969 146.367188 163.132812 145.234375 C 163.972656 144.101562 164.785156 142.949219 165.570312 141.773438 C 166.355469 140.601562 167.109375 139.40625 167.835938 138.199219 C 168.5625 136.988281 169.257812 135.757812 169.921875 134.515625 C 170.585938 133.269531 171.222656 132.007812 171.824219 130.734375 C 172.429688 129.457031 173 128.167969 173.539062 126.863281 C 174.082031 125.558594 174.589844 124.242188 175.0625 122.914062 C 175.539062 121.582031 175.984375 120.242188 176.390625 118.894531 C 176.800781 117.542969 177.179688 116.183594 177.519531 114.8125 C 177.863281 113.445312 178.171875 112.066406 178.449219 110.683594 C 178.722656 109.296875 178.964844 107.90625 179.171875 106.511719 C 179.378906 105.117188 179.550781 103.714844 179.691406 102.308594 C 179.828125 100.90625 179.933594 99.496094 180.003906 98.089844 C 180.070312 96.679688 180.105469 95.269531 180.105469 93.855469 C 180.105469 92.445312 180.066406 91.035156 179.996094 89.625 C 179.925781 88.214844 179.820312 86.808594 179.683594 85.40625 C 179.542969 84 179.367188 82.601562 179.160156 81.207031 C 178.953125 79.808594 178.710938 78.421875 178.433594 77.035156 C 178.15625 75.652344 177.847656 74.277344 177.503906 72.90625 C 177.15625 71.539062 176.78125 70.179688 176.371094 68.828125 C 175.960938 67.480469 175.515625 66.140625 175.039062 64.8125 C 174.5625 63.484375 174.054688 62.167969 173.515625 60.863281 C 172.972656 59.5625 172.402344 58.273438 171.796875 56.996094 C 171.195312 55.722656 170.558594 54.460938 169.894531 53.21875 C 169.226562 51.972656 168.53125 50.746094 167.804688 49.535156 C 167.078125 48.324219 166.324219 47.132812 165.539062 45.960938 C 164.757812 44.789062 163.945312 43.636719 163.101562 42.5 C 162.261719 41.367188 161.394531 40.257812 160.5 39.167969 C 159.601562 38.074219 158.679688 37.007812 157.734375 35.960938 C 156.785156 34.917969 155.8125 33.894531 154.816406 32.898438 C 153.816406 31.898438 152.796875 30.925781 151.75 29.980469 C 150.703125 29.03125 149.636719 28.109375 148.546875 27.214844 C 147.457031 26.320312 146.34375 25.449219 145.210938 24.609375 C 144.078125 23.769531 142.925781 22.957031 141.75 22.171875 C 140.578125 21.386719 139.386719 20.632812 138.175781 19.90625 C 136.964844 19.179688 135.738281 18.484375 134.496094 17.820312 C 133.25 17.152344 131.992188 16.519531 130.714844 15.914062 C 129.441406 15.3125 128.152344 14.738281 126.847656 14.199219 C 125.542969 13.65625 124.226562 13.148438 122.898438 12.671875 C 121.570312 12.195312 120.230469 11.753906 118.882812 11.34375 C 117.53125 10.929688 116.171875 10.554688 114.804688 10.210938 C 113.4375 9.867188 112.058594 9.554688 110.675781 9.28125 C 109.292969 9.003906 107.902344 8.761719 106.507812 8.550781 C 105.109375 8.34375 103.710938 8.171875 102.308594 8.03125 C 100.902344 7.890625 99.496094 7.785156 98.085938 7.714844 C 96.675781 7.644531 95.265625 7.609375 93.855469 7.605469 Z M 93.855469 174.542969 C 92.535156 174.542969 91.214844 174.507812 89.898438 174.445312 C 88.578125 174.378906 87.261719 174.28125 85.949219 174.152344 C 84.632812 174.023438 83.324219 173.863281 82.015625 173.667969 C 80.710938 173.472656 79.410156 173.25 78.113281 172.992188 C 76.820312 172.734375 75.53125 172.445312 74.25 172.125 C 72.96875 171.800781 71.699219 171.449219 70.433594 171.066406 C 69.171875 170.683594 67.917969 170.269531 66.675781 169.824219 C 65.429688 169.378906 64.199219 168.90625 62.980469 168.398438 C 61.757812 167.894531 60.550781 167.359375 59.359375 166.796875 C 58.164062 166.230469 56.984375 165.636719 55.820312 165.015625 C 54.65625 164.390625 53.507812 163.742188 52.375 163.0625 C 51.242188 162.382812 50.128906 161.675781 49.03125 160.945312 C 47.933594 160.210938 46.851562 159.449219 45.792969 158.664062 C 44.730469 157.875 43.691406 157.066406 42.667969 156.226562 C 41.648438 155.390625 40.648438 154.527344 39.671875 153.640625 C 38.691406 152.753906 37.738281 151.84375 36.804688 150.910156 C 35.871094 149.976562 34.957031 149.019531 34.070312 148.042969 C 33.183594 147.0625 32.324219 146.0625 31.484375 145.042969 C 30.648438 144.023438 29.835938 142.980469 29.050781 141.921875 C 28.261719 140.859375 27.503906 139.78125 26.769531 138.683594 C 26.035156 137.585938 25.328125 136.46875 24.648438 135.335938 C 23.972656 134.203125 23.320312 133.054688 22.699219 131.890625 C 22.074219 130.726562 21.480469 129.546875 20.917969 128.355469 C 20.351562 127.160156 19.816406 125.953125 19.3125 124.734375 C 18.808594 123.511719 18.332031 122.28125 17.886719 121.039062 C 17.441406 119.796875 17.027344 118.542969 16.644531 117.277344 C 16.261719 116.015625 15.910156 114.742188 15.589844 113.460938 C 15.269531 112.179688 14.980469 110.890625 14.722656 109.597656 C 14.464844 108.300781 14.238281 107 14.042969 105.695312 C 13.851562 104.390625 13.6875 103.078125 13.558594 101.765625 C 13.429688 100.449219 13.332031 99.132812 13.269531 97.816406 C 13.203125 96.496094 13.171875 95.175781 13.171875 93.855469 C 13.171875 92.535156 13.203125 91.214844 13.269531 89.898438 C 13.332031 88.578125 13.429688 87.261719 13.558594 85.949219 C 13.6875 84.632812 13.851562 83.324219 14.042969 82.015625 C 14.238281 80.710938 14.464844 79.410156 14.722656 78.113281 C 14.980469 76.820312 15.269531 75.53125 15.589844 74.25 C 15.910156 72.96875 16.261719 71.699219 16.644531 70.433594 C 17.027344 69.171875 17.441406 67.917969 17.886719 66.675781 C 18.332031 65.429688 18.808594 64.199219 19.3125 62.980469 C 19.816406 61.757812 20.351562 60.550781 20.917969 59.359375 C 21.480469 58.164062 22.074219 56.984375 22.699219 55.820312 C 23.320312 54.65625 23.972656 53.507812 24.648438 52.375 C 25.328125 51.242188 26.035156 50.128906 26.769531 49.03125 C 27.503906 47.933594 28.261719 46.851562 29.050781 45.792969 C 29.835938 44.730469 30.648438 43.691406 31.484375 42.667969 C 32.324219 41.648438 33.183594 40.648438 34.070312 39.671875 C 34.957031 38.691406 35.871094 37.738281 36.804688 36.804688 C 37.738281 35.871094 38.691406 34.957031 39.671875 34.070312 C 40.648438 33.183594 41.648438 32.324219 42.667969 31.484375 C 43.691406 30.648438 44.730469 29.835938 45.792969 29.050781 C 46.851562 28.261719 47.933594 27.503906 49.03125 26.769531 C 50.128906 26.035156 51.242188 25.328125 52.375 24.648438 C 53.507812 23.972656 54.65625 23.320312 55.820312 22.699219 C 56.984375 22.074219 58.164062 21.480469 59.359375 20.917969 C 60.550781 20.351562 61.757812 19.816406 62.980469 19.3125 C 64.199219 18.808594 65.429688 18.332031 66.675781 17.886719 C 67.917969 17.441406 69.171875 17.027344 70.433594 16.644531 C 71.699219 16.261719 72.96875 15.910156 74.25 15.589844 C 75.53125 15.269531 76.820312 14.980469 78.113281 14.722656 C 79.410156 14.464844 80.710938 14.238281 82.015625 14.042969 C 83.324219 13.851562 84.632812 13.6875 85.949219 13.558594 C 87.261719 13.429688 88.578125 13.332031 89.898438 13.269531 C 91.214844 13.203125 92.535156 13.171875 93.855469 13.171875 C 95.175781 13.171875 96.496094 13.203125 97.816406 13.269531 C 99.132812 13.332031 100.449219 13.429688 101.765625 13.558594 C 103.078125 13.6875 104.390625 13.851562 105.695312 14.042969 C 107 14.238281 108.300781 14.464844 109.597656 14.722656 C 110.890625 14.980469 112.179688 15.269531 113.460938 15.589844 C 114.742188 15.910156 116.015625 16.261719 117.277344 16.644531 C 118.542969 17.027344 119.796875 17.441406 121.039062 17.886719 C 122.28125 18.332031 123.511719 18.808594 124.734375 19.3125 C 125.953125 19.816406 127.160156 20.351562 128.355469 20.917969 C 129.546875 21.480469 130.726562 22.074219 131.890625 22.699219 C 133.054688 23.320312 134.203125 23.972656 135.335938 24.648438 C 136.46875 25.328125 137.585938 26.035156 138.683594 26.769531 C 139.78125 27.503906 140.859375 28.261719 141.921875 29.050781 C 142.980469 29.835938 144.023438 30.648438 145.042969 31.484375 C 146.0625 32.324219 147.0625 33.183594 148.042969 34.070312 C 149.019531 34.957031 149.976562 35.871094 150.910156 36.804688 C 151.84375 37.738281 152.753906 38.691406 153.640625 39.671875 C 154.527344 40.648438 155.390625 41.648438 156.226562 42.667969 C 157.066406 43.691406 157.875 44.730469 158.664062 45.792969 C 159.449219 46.851562 160.210938 47.933594 160.945312 49.03125 C 161.675781 50.128906 162.382812 51.242188 163.0625 52.375 C 163.742188 53.507812 164.390625 54.65625 165.015625 55.820312 C 165.636719 56.984375 166.230469 58.164062 166.796875 59.359375 C 167.359375 60.550781 167.894531 61.757812 168.398438 62.980469 C 168.90625 64.199219 169.378906 65.429688 169.824219 66.675781 C 170.269531 67.917969 170.683594 69.171875 171.066406 70.433594 C 171.449219 71.699219 171.800781 72.96875 172.125 74.25 C 172.445312 75.53125 172.734375 76.820312 172.992188 78.113281 C 173.25 79.410156 173.472656 80.710938 173.667969 82.015625 C 173.863281 83.324219 174.023438 84.632812 174.152344 85.949219 C 174.28125 87.261719 174.378906 88.578125 174.445312 89.898438 C 174.507812 91.214844 174.542969 92.535156 174.542969 93.855469 C 174.539062 95.175781 174.507812 96.496094 174.441406 97.8125 C 174.375 99.132812 174.277344 100.449219 174.144531 101.761719 C 174.015625 103.074219 173.851562 104.386719 173.65625 105.691406 C 173.460938 106.996094 173.234375 108.296875 172.976562 109.589844 C 172.71875 110.886719 172.425781 112.171875 172.105469 113.453125 C 171.785156 114.734375 171.429688 116.003906 171.046875 117.269531 C 170.664062 118.53125 170.246094 119.785156 169.800781 121.027344 C 169.355469 122.269531 168.882812 123.5 168.375 124.71875 C 167.871094 125.9375 167.335938 127.144531 166.769531 128.335938 C 166.203125 129.53125 165.609375 130.710938 164.988281 131.871094 C 164.363281 133.035156 163.714844 134.183594 163.035156 135.316406 C 162.355469 136.449219 161.648438 137.5625 160.914062 138.660156 C 160.183594 139.757812 159.421875 140.835938 158.636719 141.898438 C 157.847656 142.957031 157.035156 143.996094 156.199219 145.019531 C 155.363281 146.039062 154.5 147.039062 153.613281 148.015625 C 152.726562 148.992188 151.816406 149.949219 150.882812 150.882812 C 149.949219 151.816406 148.992188 152.726562 148.015625 153.613281 C 147.039062 154.5 146.039062 155.359375 145.019531 156.199219 C 143.996094 157.035156 142.957031 157.847656 141.898438 158.636719 C 140.835938 159.421875 139.757812 160.183594 138.660156 160.914062 C 137.5625 161.648438 136.449219 162.355469 135.316406 163.035156 C 134.183594 163.714844 133.035156 164.363281 131.871094 164.988281 C 130.710938 165.609375 129.53125 166.203125 128.335938 166.769531 C 127.144531 167.335938 125.9375 167.871094 124.71875 168.375 C 123.5 168.882812 122.269531 169.355469 121.027344 169.800781 C 119.785156 170.246094 118.53125 170.664062 117.269531 171.046875 C 116.003906 171.429688 114.734375 171.785156 113.453125 172.105469 C 112.171875 172.425781 110.886719 172.71875 109.589844 172.976562 C 108.296875 173.234375 106.996094 173.460938 105.691406 173.65625 C 104.386719 173.851562 103.074219 174.015625 101.761719 174.144531 C 100.449219 174.277344 99.132812 174.375 97.8125 174.441406 C 96.496094 174.507812 95.175781 174.539062 93.855469 174.542969 Z M 93.855469 174.542969 " fill-opacity="1" fill-rule="nonzero"/></g><path fill="#000000" d="M 132.011719 59.277344 L 67.253906 59.277344 L 64.765625 48.703125 C 64.695312 48.398438 64.574219 48.113281 64.40625 47.847656 C 64.238281 47.582031 64.03125 47.355469 63.785156 47.160156 C 63.539062 46.964844 63.269531 46.816406 62.972656 46.710938 C 62.675781 46.609375 62.371094 46.558594 62.058594 46.558594 L 49.339844 46.558594 C 48.972656 46.558594 48.617188 46.628906 48.273438 46.769531 C 47.933594 46.910156 47.632812 47.113281 47.371094 47.371094 C 47.113281 47.632812 46.910156 47.933594 46.769531 48.273438 C 46.628906 48.617188 46.558594 48.972656 46.558594 49.339844 C 46.558594 49.707031 46.628906 50.0625 46.769531 50.40625 C 46.910156 50.746094 47.113281 51.046875 47.371094 51.308594 C 47.632812 51.566406 47.933594 51.769531 48.273438 51.910156 C 48.617188 52.050781 48.972656 52.121094 49.339844 52.121094 L 59.855469 52.121094 L 71.269531 100.644531 C 70.679688 100.667969 70.09375 100.746094 69.515625 100.878906 C 68.941406 101.015625 68.378906 101.203125 67.839844 101.445312 C 67.300781 101.691406 66.789062 101.984375 66.304688 102.328125 C 65.820312 102.671875 65.375 103.058594 64.96875 103.488281 C 64.558594 103.917969 64.195312 104.382812 63.878906 104.882812 C 63.5625 105.382812 63.296875 105.910156 63.082031 106.464844 C 62.867188 107.015625 62.707031 107.582031 62.605469 108.167969 C 62.5 108.75 62.453125 109.339844 62.464844 109.933594 C 62.472656 110.523438 62.542969 111.109375 62.667969 111.691406 C 62.792969 112.269531 62.972656 112.832031 63.207031 113.375 C 63.441406 113.921875 63.722656 114.4375 64.058594 114.925781 C 64.394531 115.414062 64.773438 115.867188 65.195312 116.285156 C 65.621094 116.699219 66.078125 117.070312 66.574219 117.394531 C 67.070312 117.71875 67.589844 117.996094 68.140625 118.21875 C 68.6875 118.445312 69.253906 118.613281 69.835938 118.726562 C 70.417969 118.839844 71.003906 118.898438 71.597656 118.894531 L 125.652344 118.894531 C 126.019531 118.894531 126.375 118.824219 126.714844 118.683594 C 127.054688 118.542969 127.355469 118.34375 127.617188 118.082031 C 127.878906 117.820312 128.082031 117.519531 128.222656 117.179688 C 128.363281 116.839844 128.433594 116.484375 128.433594 116.113281 C 128.433594 115.746094 128.363281 115.390625 128.222656 115.050781 C 128.082031 114.707031 127.878906 114.40625 127.617188 114.148438 C 127.355469 113.886719 127.054688 113.683594 126.714844 113.542969 C 126.375 113.402344 126.019531 113.332031 125.652344 113.332031 L 71.597656 113.332031 C 71.125 113.328125 70.671875 113.234375 70.238281 113.050781 C 69.804688 112.867188 69.421875 112.609375 69.089844 112.273438 C 68.757812 111.9375 68.5 111.554688 68.320312 111.117188 C 68.140625 110.679688 68.050781 110.226562 68.050781 109.753906 C 68.050781 109.285156 68.140625 108.828125 68.320312 108.394531 C 68.5 107.957031 68.757812 107.570312 69.089844 107.238281 C 69.421875 106.902344 69.804688 106.640625 70.238281 106.460938 C 70.671875 106.277344 71.125 106.183594 71.597656 106.179688 L 125.277344 106.179688 C 125.789062 106.179688 126.296875 106.136719 126.800781 106.054688 C 127.304688 105.96875 127.800781 105.84375 128.285156 105.675781 C 128.765625 105.507812 129.234375 105.300781 129.683594 105.054688 C 130.132812 104.808594 130.554688 104.527344 130.957031 104.210938 C 131.359375 103.890625 131.730469 103.542969 132.074219 103.164062 C 132.414062 102.78125 132.722656 102.375 132.996094 101.941406 C 133.269531 101.511719 133.507812 101.058594 133.703125 100.585938 C 133.902344 100.113281 134.058594 99.628906 134.175781 99.128906 L 140.90625 70.511719 C 140.984375 70.179688 141.046875 69.839844 141.085938 69.5 C 141.128906 69.160156 141.148438 68.816406 141.152344 68.472656 C 141.152344 68.128906 141.136719 67.785156 141.097656 67.445312 C 141.0625 67.101562 141.007812 66.765625 140.933594 66.429688 C 140.859375 66.09375 140.765625 65.765625 140.652344 65.4375 C 140.542969 65.113281 140.410156 64.796875 140.261719 64.488281 C 140.117188 64.175781 139.949219 63.875 139.769531 63.582031 C 139.585938 63.292969 139.390625 63.011719 139.175781 62.742188 C 138.964844 62.472656 138.734375 62.214844 138.492188 61.972656 C 138.25 61.730469 137.996094 61.5 137.730469 61.285156 C 137.460938 61.070312 137.179688 60.871094 136.890625 60.6875 C 136.601562 60.503906 136.300781 60.335938 135.992188 60.1875 C 135.683594 60.039062 135.363281 59.90625 135.039062 59.792969 C 134.71875 59.679688 134.386719 59.582031 134.050781 59.507812 C 133.71875 59.429688 133.378906 59.371094 133.039062 59.335938 C 132.695312 59.296875 132.355469 59.277344 132.011719 59.277344 Z M 135.492188 69.238281 L 128.757812 97.855469 C 128.667969 98.246094 128.511719 98.613281 128.296875 98.957031 C 128.082031 99.296875 127.816406 99.589844 127.5 99.84375 C 127.183594 100.09375 126.835938 100.285156 126.453125 100.417969 C 126.070312 100.546875 125.679688 100.613281 125.277344 100.613281 L 76.980469 100.613281 L 68.566406 64.839844 L 132.011719 64.839844 C 132.28125 64.839844 132.546875 64.871094 132.808594 64.929688 C 133.074219 64.992188 133.324219 65.078125 133.566406 65.199219 C 133.8125 65.316406 134.039062 65.457031 134.246094 65.625 C 134.457031 65.796875 134.648438 65.984375 134.816406 66.199219 C 134.980469 66.410156 135.125 66.636719 135.238281 66.878906 C 135.355469 67.125 135.441406 67.378906 135.5 67.640625 C 135.558594 67.902344 135.589844 68.171875 135.585938 68.441406 C 135.585938 68.710938 135.554688 68.976562 135.492188 69.238281 Z M 135.492188 69.238281 " fill-opacity="1" fill-rule="nonzero"/><path fill="#000000" d="M 116.113281 122.871094 C 115.511719 122.871094 114.917969 122.929688 114.328125 123.046875 C 113.738281 123.164062 113.167969 123.335938 112.613281 123.566406 C 112.058594 123.796875 111.53125 124.078125 111.03125 124.410156 C 110.535156 124.746094 110.070312 125.125 109.648438 125.550781 C 109.222656 125.972656 108.84375 126.433594 108.511719 126.933594 C 108.175781 127.433594 107.894531 127.960938 107.664062 128.515625 C 107.4375 129.070312 107.261719 129.640625 107.144531 130.230469 C 107.027344 130.820312 106.96875 131.414062 106.96875 132.011719 C 106.96875 132.613281 107.027344 133.207031 107.144531 133.796875 C 107.261719 134.386719 107.4375 134.957031 107.664062 135.511719 C 107.894531 136.066406 108.175781 136.59375 108.511719 137.09375 C 108.84375 137.589844 109.222656 138.054688 109.648438 138.476562 C 110.070312 138.902344 110.535156 139.28125 111.03125 139.613281 C 111.53125 139.949219 112.058594 140.230469 112.613281 140.457031 C 113.167969 140.6875 113.738281 140.863281 114.328125 140.980469 C 114.917969 141.097656 115.511719 141.15625 116.113281 141.15625 C 116.710938 141.15625 117.304688 141.097656 117.894531 140.980469 C 118.484375 140.863281 119.054688 140.6875 119.609375 140.457031 C 120.164062 140.230469 120.691406 139.949219 121.191406 139.613281 C 121.6875 139.28125 122.152344 138.902344 122.574219 138.476562 C 123 138.054688 123.378906 137.589844 123.710938 137.09375 C 124.046875 136.59375 124.328125 136.066406 124.558594 135.511719 C 124.785156 134.957031 124.960938 134.386719 125.078125 133.796875 C 125.195312 133.207031 125.253906 132.613281 125.253906 132.011719 C 125.253906 131.414062 125.191406 130.820312 125.074219 130.230469 C 124.957031 129.640625 124.785156 129.070312 124.554688 128.515625 C 124.324219 127.960938 124.042969 127.4375 123.707031 126.9375 C 123.375 126.4375 122.996094 125.976562 122.570312 125.550781 C 122.148438 125.128906 121.6875 124.75 121.1875 124.414062 C 120.6875 124.082031 120.164062 123.800781 119.609375 123.570312 C 119.054688 123.339844 118.480469 123.167969 117.894531 123.050781 C 117.304688 122.929688 116.710938 122.871094 116.113281 122.871094 Z M 116.113281 135.589844 C 115.636719 135.589844 115.179688 135.5 114.742188 135.316406 C 114.304688 135.136719 113.917969 134.878906 113.582031 134.542969 C 113.246094 134.207031 112.988281 133.820312 112.804688 133.382812 C 112.625 132.945312 112.535156 132.488281 112.535156 132.011719 C 112.535156 131.539062 112.625 131.082031 112.804688 130.644531 C 112.988281 130.207031 113.246094 129.820312 113.582031 129.484375 C 113.917969 129.148438 114.304688 128.890625 114.742188 128.707031 C 115.179688 128.527344 115.636719 128.4375 116.113281 128.4375 C 116.585938 128.4375 117.042969 128.527344 117.480469 128.707031 C 117.917969 128.890625 118.304688 129.148438 118.640625 129.484375 C 118.976562 129.820312 119.234375 130.207031 119.417969 130.644531 C 119.597656 131.082031 119.6875 131.539062 119.6875 132.011719 C 119.6875 132.488281 119.597656 132.945312 119.414062 133.382812 C 119.234375 133.820312 118.976562 134.207031 118.640625 134.542969 C 118.304688 134.875 117.917969 135.136719 117.480469 135.316406 C 117.042969 135.5 116.585938 135.589844 116.113281 135.589844 Z M 116.113281 135.589844 " fill-opacity="1" fill-rule="nonzero"/><path fill="#000000" d="M 81.136719 122.871094 C 80.535156 122.871094 79.941406 122.929688 79.351562 123.046875 C 78.765625 123.164062 78.191406 123.335938 77.636719 123.566406 C 77.082031 123.796875 76.554688 124.078125 76.058594 124.410156 C 75.558594 124.746094 75.097656 125.125 74.671875 125.550781 C 74.246094 125.972656 73.867188 126.433594 73.535156 126.933594 C 73.203125 127.433594 72.921875 127.960938 72.691406 128.515625 C 72.460938 129.070312 72.289062 129.640625 72.171875 130.230469 C 72.054688 130.820312 71.996094 131.414062 71.996094 132.011719 C 71.996094 132.613281 72.054688 133.207031 72.171875 133.796875 C 72.289062 134.386719 72.460938 134.957031 72.691406 135.511719 C 72.921875 136.066406 73.203125 136.59375 73.535156 137.09375 C 73.867188 137.589844 74.246094 138.054688 74.671875 138.476562 C 75.097656 138.902344 75.558594 139.28125 76.058594 139.613281 C 76.554688 139.949219 77.082031 140.230469 77.636719 140.457031 C 78.191406 140.6875 78.765625 140.863281 79.351562 140.980469 C 79.941406 141.097656 80.535156 141.15625 81.136719 141.15625 C 81.738281 141.15625 82.332031 141.097656 82.917969 140.980469 C 83.507812 140.863281 84.078125 140.6875 84.632812 140.457031 C 85.1875 140.230469 85.714844 139.949219 86.214844 139.613281 C 86.714844 139.28125 87.175781 138.902344 87.601562 138.476562 C 88.023438 138.054688 88.402344 137.589844 88.738281 137.09375 C 89.070312 136.59375 89.351562 136.066406 89.582031 135.511719 C 89.8125 134.957031 89.984375 134.386719 90.101562 133.796875 C 90.21875 133.207031 90.277344 132.613281 90.277344 132.011719 C 90.277344 131.414062 90.21875 130.820312 90.101562 130.230469 C 89.984375 129.640625 89.808594 129.070312 89.578125 128.515625 C 89.347656 127.960938 89.066406 127.4375 88.734375 126.9375 C 88.398438 126.4375 88.019531 125.976562 87.597656 125.550781 C 87.171875 125.128906 86.710938 124.75 86.210938 124.414062 C 85.714844 124.082031 85.1875 123.800781 84.632812 123.570312 C 84.078125 123.339844 83.507812 123.167969 82.917969 123.050781 C 82.332031 122.929688 81.734375 122.871094 81.136719 122.871094 Z M 81.136719 135.589844 C 80.660156 135.589844 80.207031 135.5 79.765625 135.316406 C 79.328125 135.136719 78.941406 134.878906 78.605469 134.542969 C 78.269531 134.207031 78.011719 133.820312 77.832031 133.382812 C 77.648438 132.945312 77.558594 132.488281 77.558594 132.011719 C 77.558594 131.539062 77.648438 131.082031 77.832031 130.644531 C 78.011719 130.207031 78.269531 129.820312 78.605469 129.484375 C 78.941406 129.148438 79.328125 128.890625 79.765625 128.707031 C 80.207031 128.527344 80.660156 128.4375 81.136719 128.4375 C 81.609375 128.4375 82.066406 128.527344 82.503906 128.707031 C 82.945312 128.890625 83.332031 129.148438 83.664062 129.484375 C 84 129.820312 84.257812 130.207031 84.441406 130.644531 C 84.621094 131.082031 84.714844 131.539062 84.714844 132.011719 C 84.710938 132.488281 84.621094 132.945312 84.441406 133.382812 C 84.257812 133.820312 84 134.207031 83.664062 134.542969 C 83.328125 134.875 82.941406 135.136719 82.503906 135.316406 C 82.066406 135.5 81.609375 135.589844 81.136719 135.589844 Z M 81.136719 135.589844 " fill-opacity="1" fill-rule="nonzero"/></svg>